<?xml version="1.0" ?><svg id="Layer_1" style="enable-background:new 0 0 512 512;" version="1.1" viewBox="0 0 512 512" xml:space="preserve" xmlns="http://www.w3.org/2000/svg" xmlns:xlink="http://www.w3.org/1999/xlink"><style type="text/css">
	.st0{fill:url(#SVGID_1_);}
	.st1{fill:#1DB954;}
	.st2{fill:url(#SVGID_2_);}
	.st3{fill:url(#SVGID_3_);}
	.st4{fill:url(#SVGID_4_);}
</style><g><g><g><linearGradient gradientUnits="userSpaceOnUse" id="SVGID_1_" x1="230.7067" x2="270.0197" y1="266.5023" y2="334.5944"><stop offset="0" style="stop-color:#05CC47"/><stop offset="1" style="stop-color:#475CC4"/></linearGradient><path class="st0" d="M311.2,310.5c-0.5,0-1-0.2-1.5-0.5l-0.2-0.1c-20.3-12.5-44.3-18.9-71.2-18.9c-14.9,0-31,2-47.9,5.8l-0.1,0     l-0.1,0c-0.2,0.1-0.5,0.1-0.7,0.1c-1.3,0-2.5-1.4-3-2.7c-0.4-1.7,1.2-3.1,2.5-3.6c17-3.8,33.4-5.7,48.6-5.7     c28.4,0,53.5,6.6,74.6,19.6l0.3,0.2l0.3,0.1c0.6,0.2,0.9,0.6,1.1,1.1c0.3,0.8,0.2,1.9-0.2,2.9C313,309.9,312.1,310.5,311.2,310.5     z"/><path class="st1" d="M237.6,280c-15.8,0-32.5,2-50,5.9c-3.9,1.3-7.2,5.3-5.9,9.8c1.1,3.3,4.1,6.2,7.8,6.2c0.7,0,1.4-0.1,2.1-0.3     c16.6-3.8,32.2-5.7,46.8-5.7c26,0,48.9,6,68.6,18.1c1.4,0.9,2.9,1.4,4.3,1.4c2.6,0,5.1-1.4,6.8-4c2-3.9,1.3-9.2-3.3-11.2     C292.6,286.7,266.7,280,237.6,280L237.6,280z"/></g><g><linearGradient gradientUnits="userSpaceOnUse" id="SVGID_2_" x1="232.6128" x2="279.2408" y1="221.6584" y2="302.4206"><stop offset="0" style="stop-color:#05CC47"/><stop offset="1" style="stop-color:#475CC4"/></linearGradient><path class="st2" d="M325,275.3c-0.8,0-1.4-0.2-2.1-0.7l-0.1-0.1l-0.2-0.1c-23.5-14.3-55.1-22.6-86.8-22.6     c-17.1,0-33.1,2.3-47.6,6.9c-0.5,0.1-0.9,0.2-1.4,0.2c-2,0-4.3-1-4.9-3.1c-0.4-1.4-0.2-3,0.4-4.3c0.4-0.8,1.2-1.8,2.5-2.1     l0.2-0.1c15.8-4.7,32.8-7.1,50.7-7.1c33.7,0,67.5,8.9,92.8,24.3l0.2,0.1l0.2,0.1c0.5,0.2,1.1,1,1.4,2.2c0.2,0.6,0.4,2.2-0.6,3.6     C328.5,274.2,326.7,275.3,325,275.3z"/><path class="st1" d="M235.8,237.2c-17.9,0-35.7,2.4-52.2,7.4c-5.2,1.3-7.9,7.2-6.6,12.5c1.1,4.3,5.3,6.9,9.7,6.9     c0.9,0,1.8-0.1,2.7-0.3c14.4-4.6,30.2-6.7,46.3-6.7c30.2,0,61.1,7.7,84.2,21.8c1.6,1.1,3.3,1.6,5,1.6c3.3,0,6.6-1.9,8.8-4.9     c3.3-4.6,1.3-11.1-2.6-13.1C304.5,245.9,269.9,237.2,235.8,237.2L235.8,237.2z"/></g><g><linearGradient gradientUnits="userSpaceOnUse" id="SVGID_3_" x1="234.5899" x2="286.3255" y1="175.5932" y2="265.2019"><stop offset="0" style="stop-color:#05CC47"/><stop offset="1" style="stop-color:#475CC4"/></linearGradient><path class="st3" d="M341.6,232.3c-0.7,0-1.6-0.1-2.5-0.6c-25.1-14.9-61.9-23.4-100.8-23.4c-21.4,0-41.8,2.7-57.7,7.6     c-0.3,0.1-0.7,0.1-1.1,0.1c-1.7,0-3.4-1.2-4-2.8c-0.6-2.3,0.9-4.4,2.7-5.1c16.8-5,38.1-7.7,60-7.7c40.6,0,79,9,105.3,24.6     l0.2,0.1c1.2,0.7,1.7,1.9,1.9,2.6c0.3,1,0.2,2.2-0.2,3.1C344.7,231.6,343.3,232.3,341.6,232.3z"/><path class="st1" d="M238.2,192.6c-23,0-44.9,2.9-62.5,8.1c-5.9,2-9.8,8.5-7.9,15.1c1.6,4.9,6.4,8.4,11.6,8.4     c1.1,0,2.3-0.2,3.5-0.5c15.2-4.7,34.6-7.3,55.3-7.3c33.8,0,70.8,6.9,96.9,22.4c2,1.1,4.3,1.6,6.5,1.6c4.3,0,8.4-1.9,10.6-4.9     c3.3-5.9,1.3-13.8-4.6-17.1C317.3,200.4,276.2,192.6,238.2,192.6L238.2,192.6z"/></g><g><linearGradient gradientUnits="userSpaceOnUse" id="SVGID_4_" x1="152.1314" x2="359.8671" y1="76.0969" y2="435.9058"><stop offset="0" style="stop-color:#05CC47"/><stop offset="1" style="stop-color:#475CC4"/></linearGradient><path class="st4" d="M256,463.8c-114.6,0-207.8-93.2-207.8-207.8c0-114.6,93.2-207.8,207.8-207.8S463.8,141.4,463.8,256     C463.8,370.6,370.6,463.8,256,463.8z M257.7,116.9c-75.1,0-136.2,61.1-136.2,136.2c0,75.1,61.1,136.2,136.2,136.2     c75.1,0,136.2-61.1,136.2-136.2C393.9,178,332.8,116.9,257.7,116.9z"/><path class="st1" d="M256,53.2c27.4,0,53.9,5.4,78.9,15.9c24.1,10.2,45.8,24.8,64.5,43.5c18.6,18.6,33.2,40.3,43.5,64.5     c10.6,25,15.9,51.5,15.9,78.9c0,27.4-5.4,53.9-15.9,78.9c-10.2,24.1-24.8,45.8-43.5,64.5c-18.6,18.6-40.3,33.2-64.5,43.5     c-25,10.6-51.5,15.9-78.9,15.9s-53.9-5.4-78.9-15.9c-24.1-10.2-45.8-24.8-64.5-43.5c-18.6-18.6-33.2-40.3-43.5-64.5     c-10.6-25-15.9-51.5-15.9-78.9c0-27.4,5.4-53.9,15.9-78.9c10.2-24.1,24.8-45.8,43.5-64.5c18.6-18.6,40.3-33.2,64.5-43.5     C202.1,58.6,228.6,53.2,256,53.2 M257.7,394.3c77.8,0,141.2-63.3,141.2-141.2s-63.3-141.2-141.2-141.2     c-77.8,0-141.2,63.3-141.2,141.2S179.9,394.3,257.7,394.3 M256,43.2C138.5,43.2,43.2,138.5,43.2,256     c0,117.5,95.3,212.8,212.8,212.8S468.8,373.5,468.8,256C468.8,138.5,373.5,43.2,256,43.2L256,43.2z M257.7,384.3     c-72.5,0-131.2-58.7-131.2-131.2c0-72.4,58.7-131.2,131.2-131.2c72.4,0,131.2,58.7,131.2,131.2     C388.9,325.5,330.1,384.3,257.7,384.3L257.7,384.3z"/></g></g></g></svg>