<?xml version="1.0" ?><svg id="Layer_1" style="enable-background:new 0 0 512 512;" version="1.1" viewBox="0 0 512 512" xml:space="preserve" xmlns="http://www.w3.org/2000/svg" xmlns:xlink="http://www.w3.org/1999/xlink"><style type="text/css">
	.st0{fill:url(#SVGID_1_);}
	.st1{fill:#B125CE;}
	.st2{fill:url(#SVGID_2_);}
	.st3{fill:url(#SVGID_3_);}
</style><g><g><g><linearGradient gradientUnits="userSpaceOnUse" id="SVGID_1_" x1="238.2196" x2="274.219" y1="229.2747" y2="291.6274"><stop offset="0" style="stop-color:#B125CE"/><stop offset="1" style="stop-color:#FF9F5E"/></linearGradient><path class="st0" d="M256.2,296.5c-19.9,0-36-16.1-36-36c0-19.9,16.2-36,36-36c19.9,0,36,16.2,36,36     C292.2,280.3,276.1,296.5,256.2,296.5z"/><path class="st1" d="M256.2,229.4c17.1,0,31,13.9,31,31c0,17.1-13.9,31-31,31s-31-13.9-31-31     C225.2,243.4,239.1,229.4,256.2,229.4 M256.2,219.4c-22.6,0-41,18.4-41,41c0,22.6,18.4,41,41,41c22.7,0,41-18.4,41-41     C297.2,237.8,278.9,219.4,256.2,219.4L256.2,219.4z"/></g><g><linearGradient gradientUnits="userSpaceOnUse" id="SVGID_2_" x1="198.7839" x2="313.6554" y1="160.9707" y2="359.9341"><stop offset="0" style="stop-color:#B125CE"/><stop offset="1" style="stop-color:#FF9F5E"/></linearGradient><path class="st2" d="M256.2,356.3c-32.6,0-36.5-0.1-49.5-0.7c-11.2-0.5-17.3-2.3-21.3-3.9c-5.1-2-8.6-4.3-12.4-8.1     c-3.8-3.8-6.1-7.3-8.1-12.4c-1.5-4-3.4-10-3.9-21.3c-0.6-12.8-0.7-16.6-0.7-49.5c0-32.9,0.1-36.7,0.7-49.5     c0.5-11.3,2.3-17.3,3.9-21.3c2-5.1,4.2-8.6,8.1-12.4c3.8-3.8,7.3-6.1,12.4-8.1c4-1.5,10-3.4,21.3-3.9c12.8-0.6,16.6-0.7,49.5-0.7     c32.8,0,36.7,0.1,49.5,0.7c11.2,0.5,17.3,2.4,21.3,3.9c5.1,2,8.6,4.2,12.4,8.1c3.8,3.8,6.1,7.3,8.1,12.4c1.5,4,3.4,10,3.9,21.3     c0.6,12.8,0.7,16.6,0.7,49.5s-0.1,36.7-0.7,49.5c-0.5,11.2-2.3,17.3-3.9,21.3c-2,5.1-4.2,8.6-8.1,12.4c-3.8,3.8-7.3,6.1-12.4,8.1     c-4,1.5-10,3.4-21.2,3.9C292.7,356.2,288.9,356.3,256.2,356.3z M256.2,192.3c-37.6,0-68.2,30.6-68.2,68.2s30.6,68.2,68.2,68.2     s68.2-30.6,68.2-68.2S293.8,192.3,256.2,192.3z M321.9,175c-10.9,0-19.8,8.9-19.8,19.8c0,10.9,8.9,19.8,19.8,19.8     c10.9,0,19.8-8.9,19.8-19.8C341.7,183.9,332.8,175,321.9,175z"/><path class="st1" d="M256.2,169.6c32.7,0,36.6,0.1,49.3,0.7c3.5,0.2,6.5,0.5,9,0.8c-10.1,3.1-17.4,12.6-17.4,23.6     c0,1.9,0.2,3.7,0.6,5.4c-11.8-8.2-26.1-12.9-41.5-12.9c-40.3,0-73.2,32.8-73.2,73.2c0,40.3,32.8,73.2,73.2,73.2     c40.3,0,73.2-32.8,73.2-73.2c0-15.4-4.8-29.7-12.9-41.5c1.8,0.4,3.6,0.6,5.4,0.6c11.1,0,20.5-7.3,23.6-17.4     c0.4,2.5,0.7,5.5,0.8,9c0.6,12.7,0.7,16.5,0.7,49.2c0,32.8-0.1,36.6-0.7,49.3c-0.5,10.5-2.2,16-3.6,19.7     c-1.7,4.5-3.6,7.4-6.9,10.7c-3.3,3.3-6.2,5.2-10.7,7c-3.6,1.4-9.2,3.1-19.7,3.6c-12.9,0.6-16.7,0.7-49.3,0.7s-36.4-0.1-49.3-0.7     c-10.5-0.5-16-2.2-19.7-3.6c-4.5-1.7-7.4-3.6-10.7-7c-3.3-3.3-5.2-6.2-6.9-10.7c-1.4-3.6-3.1-9.2-3.6-19.7     c-0.6-12.7-0.7-16.5-0.7-49.2c0-32.8,0.1-36.6,0.7-49.3c0.5-10.5,2.2-16,3.6-19.7c1.7-4.4,3.6-7.4,6.9-10.7     c3.3-3.3,6.3-5.2,10.7-7c3.6-1.4,9.2-3.1,19.7-3.6C219.7,169.7,223.5,169.6,256.2,169.6 M256.2,159.6c-32.8,0-36.7,0.1-49.7,0.7     c-12,0.6-18.5,2.6-22.8,4.2c-5.7,2.2-9.8,4.9-14.1,9.2c-4.3,4.3-7,8.4-9.2,14.2c-1.7,4.3-3.7,10.8-4.2,22.8     c-0.6,13-0.7,16.9-0.7,49.7c0,32.9,0.1,36.7,0.7,49.7c0.5,12,2.5,18.5,4.2,22.8c2.2,5.7,4.9,9.8,9.2,14.1c4.3,4.3,8.4,7,14.1,9.2     c4.3,1.7,10.9,3.7,22.8,4.2c13,0.6,16.9,0.7,49.7,0.7c32.9,0,36.7-0.1,49.7-0.7c12-0.5,18.5-2.5,22.8-4.2     c5.7-2.2,9.8-4.9,14.1-9.2c4.3-4.3,7-8.4,9.2-14.1c1.7-4.3,3.7-10.8,4.2-22.8c0.6-13,0.7-16.9,0.7-49.7c0-32.8-0.1-36.7-0.7-49.7     c-0.5-12-2.5-18.5-4.2-22.8c-2.2-5.8-4.9-9.8-9.2-14.2c-4.3-4.3-8.4-7-14.1-9.2c-4.3-1.7-10.9-3.7-22.8-4.2     C293,159.7,289.1,159.6,256.2,159.6L256.2,159.6z M321.9,209.5c-8.2,0-14.8-6.6-14.8-14.8c0-8.1,6.6-14.8,14.8-14.8     c8.1,0,14.8,6.6,14.8,14.8C336.7,202.9,330,209.5,321.9,209.5L321.9,209.5z M256.2,323.6c-34.9,0-63.2-28.3-63.2-63.2     c0-34.9,28.3-63.2,63.2-63.2c34.9,0,63.2,28.3,63.2,63.2C319.4,295.3,291.1,323.6,256.2,323.6L256.2,323.6z"/></g><g><linearGradient gradientUnits="userSpaceOnUse" id="SVGID_3_" x1="152.133" x2="359.8687" y1="76.0947" y2="435.9034"><stop offset="0" style="stop-color:#B125CE"/><stop offset="1" style="stop-color:#FF9F5E"/></linearGradient><path class="st3" d="M256,463.8c-114.6,0-207.8-93.2-207.8-207.8c0-114.6,93.2-207.8,207.8-207.8S463.8,141.4,463.8,256     C463.8,370.6,370.6,463.8,256,463.8z M256.2,132.4c-33.4,0-37.8,0.1-50.9,0.7c-12.4,0.6-22.1,2.4-31.4,6.1     c-9.3,3.6-16.5,8.3-23.5,15.3c-7,7-11.7,14.2-15.3,23.5c-3.6,9.3-5.5,19-6.1,31.4c-0.6,13.2-0.7,17.6-0.7,50.9     c0,33.4,0.1,37.8,0.7,50.9c0.6,12.4,2.4,22.1,6.1,31.4c3.6,9.3,8.3,16.5,15.3,23.5c7,7,14.2,11.7,23.5,15.3     c9.3,3.6,19,5.5,31.4,6c13.2,0.6,17.6,0.7,50.9,0.7c33.4,0,37.8-0.1,50.9-0.7c12.4-0.6,22.1-2.4,31.4-6     c9.3-3.6,16.5-8.3,23.5-15.3c7-7,11.7-14.2,15.3-23.5c3.6-9.3,5.5-19,6.1-31.4c0.6-13.4,0.7-17.8,0.7-50.9     c0-33.1-0.1-37.5-0.7-50.9c-0.6-12.4-2.4-22.1-6.1-31.4c-3.6-9.3-8.3-16.5-15.3-23.5c-7-7-14.2-11.7-23.5-15.3     c-9.3-3.6-19-5.5-31.4-6.1C294,132.6,289.6,132.4,256.2,132.4z"/><path class="st1" d="M256,53.2c27.4,0,53.9,5.4,78.9,15.9c24.1,10.2,45.8,24.8,64.5,43.5c18.6,18.6,33.2,40.3,43.5,64.5     c10.6,25,15.9,51.5,15.9,78.9c0,27.4-5.4,53.9-15.9,78.9c-10.2,24.1-24.8,45.8-43.5,64.5c-18.6,18.6-40.3,33.2-64.5,43.5     c-25,10.6-51.5,15.9-78.9,15.9s-53.9-5.4-78.9-15.9c-24.1-10.2-45.8-24.8-64.5-43.5c-18.6-18.6-33.2-40.3-43.5-64.5     c-10.6-25-15.9-51.5-15.9-78.9c0-27.4,5.4-53.9,15.9-78.9c10.2-24.1,24.8-45.8,43.5-64.5c18.6-18.6,40.3-33.2,64.5-43.5     C202.1,58.6,228.6,53.2,256,53.2 M256.2,393.5c33.5,0,37.9-0.1,51.2-0.8c13-0.6,23.2-2.6,33-6.4c10-3.9,17.7-8.9,25.2-16.4     c7.5-7.5,12.6-15.3,16.4-25.2c3.8-9.8,5.8-20,6.4-33c0.6-13.5,0.8-17.9,0.8-51.2s-0.1-37.7-0.8-51.2c-0.6-13-2.6-23.2-6.4-33     c-3.9-10-8.9-17.7-16.4-25.2c-7.4-7.4-15.4-12.6-25.2-16.4c-9.8-3.8-20-5.8-33-6.4c-13.3-0.6-17.7-0.8-51.2-0.8     c-33.5,0-37.9,0.1-51.2,0.8c-13,0.6-23.2,2.6-33,6.4c-9.8,3.8-17.8,9-25.2,16.4c-7.5,7.5-12.6,15.3-16.4,25.2     c-3.8,9.8-5.8,20-6.4,33c-0.6,13.3-0.8,17.7-0.8,51.2s0.1,37.9,0.8,51.2c0.6,13,2.6,23.2,6.4,33c3.9,10,8.9,17.7,16.4,25.2     c7.5,7.5,15.3,12.6,25.2,16.4c9.8,3.8,20,5.8,33,6.4C218.3,393.3,222.7,393.5,256.2,393.5 M256,43.2     C138.5,43.2,43.2,138.5,43.2,256S138.5,468.8,256,468.8S468.8,373.5,468.8,256S373.5,43.2,256,43.2L256,43.2z M256.2,383.5     c-33.4,0-37.6-0.1-50.7-0.7c-13.1-0.6-22-2.7-29.9-5.7c-8.1-3.2-15-7.4-21.8-14.2c-6.8-6.8-11-13.7-14.2-21.8     c-3-7.8-5.1-16.8-5.7-29.9c-0.6-13.1-0.7-17.3-0.7-50.7s0.1-37.6,0.7-50.7c0.6-13.1,2.7-22,5.7-29.9c3.2-8.1,7.4-15,14.2-21.8     c6.8-6.8,13.7-11,21.8-14.2c7.8-3,16.8-5.1,29.9-5.7c13.1-0.6,17.3-0.7,50.7-0.7c33.4,0,37.6,0.1,50.7,0.7     c13.1,0.6,22,2.7,29.9,5.7c8.1,3.1,14.9,7.4,21.8,14.2c6.8,6.8,11,13.7,14.2,21.8c3,7.8,5.1,16.8,5.7,29.9     c0.6,13.1,0.7,17.3,0.7,50.7s-0.1,37.6-0.7,50.7c-0.6,13.1-2.7,22-5.7,29.9c-3.1,8.1-7.4,14.9-14.2,21.8     c-6.8,6.8-13.7,11-21.8,14.2c-7.8,3-16.8,5.1-29.9,5.7C293.8,383.3,289.6,383.5,256.2,383.5L256.2,383.5z"/></g></g></g></svg>