<?xml version="1.0" ?><svg id="Layer_1" style="enable-background:new 0 0 512 512;" version="1.1" viewBox="0 0 512 512" xml:space="preserve" xmlns="http://www.w3.org/2000/svg" xmlns:xlink="http://www.w3.org/1999/xlink"><style type="text/css">
	.st0{fill:url(#SVGID_1_);}
	.st1{fill:#E4141E;}
</style><g><g><g><linearGradient gradientUnits="userSpaceOnUse" id="SVGID_1_" x1="359.8671" x2="152.1314" y1="435.9058" y2="76.0969"><stop offset="0" style="stop-color:#E4141E"/><stop offset="2.627814e-02" style="stop-color:#E1141D"/><stop offset="0.4763" style="stop-color:#AC120D"/><stop offset="0.8145" style="stop-color:#8B1104"/><stop offset="1" style="stop-color:#7F1100"/></linearGradient><path class="st0" d="M256,463.8c-114.6,0-207.8-93.2-207.8-207.8c0-114.6,93.2-207.8,207.8-207.8S463.8,141.4,463.8,256     C463.8,370.6,370.6,463.8,256,463.8z M188.2,208.8c22,0,30,12.2,37.9,36.2l9.7,30.4c8.7,26.5,26.3,56.8,85.5,56.8     c56.5,0,68.4-25.6,68.4-47c0-26-14-41.4-44.1-48.4l-19.6-4.3c-12.4-2.8-13.4-7.3-13.4-12.8c0-10,10.4-11.4,16.6-11.4     c14.5,0,18,5.6,18.8,14.1l0.5,5.1l40.4-4.9l-0.4-4.8c-2.6-28.7-21.9-43.2-57.4-43.2c-37.6,0-59.2,17.7-59.2,48.6     c0,24.1,12.4,38.3,39.2,44.8l20.7,4.9c14.8,3.5,16.9,8.8,16.9,14c0,3,0,10.8-26.7,10.8c-24.6,0-38-10.1-46.1-35l-10.1-30.5     c-13.4-41.5-35.4-57.7-78.5-57.7c-46.7,0-73.5,29.7-73.5,81.5c0,48.5,26,76.3,71.4,76.3c36.1,0,53.7-16.9,54.4-17.6l2.3-2.3     L228.1,275l-5.5,6.2c-0.1,0.2-14.7,16-35.9,16c-18.8,0-31-16.7-31-42.5C155.7,226,167.8,208.8,188.2,208.8z"/><path class="st1" d="M256,53.2c27.4,0,53.9,5.4,78.9,15.9c24.1,10.2,45.8,24.8,64.5,43.5c18.6,18.6,33.2,40.3,43.5,64.5     c10.6,25,15.9,51.5,15.9,78.9c0,27.4-5.4,53.9-15.9,78.9c-10.2,24.1-24.8,45.8-43.5,64.5c-18.6,18.6-40.3,33.2-64.5,43.5     c-25,10.6-51.5,15.9-78.9,15.9s-53.9-5.4-78.9-15.9c-24.1-10.2-45.8-24.8-64.5-43.5c-18.6-18.6-33.2-40.3-43.5-64.5     c-10.6-25-15.9-51.5-15.9-78.9c0-27.4,5.4-53.9,15.9-78.9c10.2-24.1,24.8-45.8,43.5-64.5c18.6-18.6,40.3-33.2,64.5-43.5     C202.1,58.6,228.6,53.2,256,53.2 M266.9,220.5c-14.5-36.1-38.2-51.1-79.6-51.1c-49.9,0-78.5,31.5-78.5,86.5     c0,51.7,27.9,81.3,76.4,81.3c38.1,0,57.1-18.2,57.9-19l4.6-4.5l-2.2-6.1l-1.2-3.3c12.8,18.2,35,32.9,77.1,32.9     c21.7,0,38.9-3.7,51-11c14.6-8.8,22.4-23,22.4-41c0-27.7-15-45-45.8-52.8l5.4-0.6l30.5-3.7l9.6-1.2l-0.9-9.7     c-1.9-21.8-14.3-47.8-62.4-47.8C291.9,169.4,268,188.5,266.9,220.5 M329.2,213.2c12,0,13.3,3.9,13.8,9.5l0.8,8.5l-16.7-3.7     c-9.5-2.2-9.5-4.3-9.5-7.9c0-2.4,0.9-3.4,1.8-4.1C320.6,214.6,323.4,213.2,329.2,213.2 M188.2,213.8c19.1,0,25.7,10.1,33.1,32.7     l6.7,21l-9.2,10.3c-0.1,0.1-13.4,14.3-32.2,14.3c-15.8,0-25.9-14.7-25.9-37.5C160.7,228.7,170.7,213.8,188.2,213.8 M279.2,257     c7.1,7.2,17.3,12.4,30.6,15.6l0,0l0,0l20.7,4.9c7,1.6,10.1,3.6,11.5,4.9c0.9,0.9,1.5,1.9,1.5,4.2c0,1.2,0,2-2.4,3.1     c-2.6,1.2-8,2.7-19.3,2.7c-25.7,0-35.2-12.6-41.4-31.5L279.2,257 M256,43.2C138.5,43.2,43.2,138.5,43.2,256     c0,117.5,95.3,212.8,212.8,212.8S468.8,373.5,468.8,256C468.8,138.5,373.5,43.2,256,43.2L256,43.2z M321.9,302.5     c20.7,0,31.7-4.6,31.7-15.8c0-8.8-5.2-15.2-20.7-18.9l-20.7-4.9c-25.3-6.1-35.3-19.2-35.3-39.9c0-33.2,26.8-43.6,54.2-43.6     c31.1,0,50,11.3,52.4,38.7l-30.5,3.7c-1.2-13.1-9.1-18.6-23.8-18.6c-13.4,0-21.6,6.1-21.6,16.4c0,9.1,4,14.6,17.4,17.7l19.5,4.3     c26.2,6.1,40.2,18.9,40.2,43.6c0,30.5-25.6,42-63.4,42c-52.7,0-71-23.8-80.7-53.3l-9.8-30.5c-7.3-22.2-15.8-39.6-42.7-39.6     c-18.6,0-37.5,13.4-37.5,50.9c0,29.2,14.9,47.5,35.9,47.5c23.8,0,39.6-17.7,39.6-17.7L236,311c0,0-16.4,16.1-50.9,16.1     c-42.7,0-66.4-25-66.4-71.3c0-48.1,23.8-76.5,68.5-76.5c40.5,0,60.9,14.6,73.7,54.2l10.1,30.5     C278.4,286.4,291.1,302.5,321.9,302.5L321.9,302.5z"/></g></g></g></svg>