<?xml version="1.0" ?><svg id="Layer_1" style="enable-background:new 0 0 512 512;" version="1.1" viewBox="0 0 512 512" xml:space="preserve" xmlns="http://www.w3.org/2000/svg" xmlns:xlink="http://www.w3.org/1999/xlink"><style type="text/css">
	.st0{fill:url(#SVGID_1_);}
	.st1{fill:#1B95E0;}
</style><g><g><g><linearGradient gradientUnits="userSpaceOnUse" id="SVGID_1_" x1="152.133" x2="359.8687" y1="76.0947" y2="435.9034"><stop offset="0" style="stop-color:#1B95E0"/><stop offset="1" style="stop-color:#00D4A3"/></linearGradient><path class="st0" d="M256,463.8c-114.6,0-207.8-93.2-207.8-207.8c0-114.6,93.2-207.8,207.8-207.8S463.8,141.4,463.8,256     C463.8,370.6,370.6,463.8,256,463.8z M149.7,345.8c23.3,14.9,50.2,22.8,77.9,22.8c51.6,0,84.8-23.4,103.6-43     c26.7-27.9,41.9-67.1,40.9-105.4c9.2-7,17.1-15.4,23.5-25.1l9.6-14.3l-15.8,7c-2.8,1.2-5.7,2.3-8.6,3.3c3.8-5,6.8-10.6,8.8-16.6     l4-12.5l-11.3,6.7c-8.4,5-17.5,8.6-27,10.8c-10-9.6-23.5-15-37.4-15c-16.6,0-32,7.5-42.3,20.4c-8.9,11.3-13,25.3-11.5,39.3     c-35.5-3.5-68.5-21.1-91.2-49l-4.6-5.6l-3.6,6.2c-11.1,19.1-9.2,42.3,3.2,59.2c-1.2-0.5-2.4-1.1-3.5-1.7l-7.2-4l-0.2,8.3     c-0.4,17.9,8.6,34.5,22.6,44.7l-7.8-1.5l2.6,8c5.6,17.7,19.8,30.9,37.2,35.6c-14.3,8.4-30.8,12.9-47.5,12.9     c-3.7,0-7.5-0.2-11.2-0.7l-21.6-2.5L149.7,345.8z"/><path class="st1" d="M256,53.2c27.4,0,53.9,5.4,78.9,15.9c24.1,10.2,45.8,24.8,64.5,43.5c18.6,18.6,33.2,40.3,43.5,64.5     c10.6,25,15.9,51.5,15.9,78.9c0,27.4-5.4,53.9-15.9,78.9c-10.2,24.1-24.8,45.8-43.5,64.5c-18.6,18.6-40.3,33.2-64.5,43.5     c-25,10.6-51.5,15.9-78.9,15.9s-53.9-5.4-78.9-15.9c-24.1-10.2-45.8-24.8-64.5-43.5c-18.6-18.6-33.2-40.3-43.5-64.5     c-10.6-25-15.9-51.5-15.9-78.9c0-27.4,5.4-53.9,15.9-78.9c10.2-24.1,24.8-45.8,43.5-64.5c18.6-18.6,40.3-33.2,64.5-43.5     C202.1,58.6,228.6,53.2,256,53.2 M356.7,173.9c-10.7-9.3-24.6-14.5-38.8-14.5c-18.1,0-35,8.1-46.2,22.3     c-8.4,10.6-12.9,23.5-12.8,36.8c-32-4.6-61.4-21.1-82-46.4l-9.1-11.2l-7.3,12.5c-9.1,15.5-10.2,33.7-4.5,49.5l-3.5-1.9l-0.4,16.5     c-0.3,13.8,4.5,26.9,12.7,37.3l4.9,15.5c4.9,15.4,15.8,27.8,29.7,34.7c-11.1,4.8-23.1,7.3-35.2,7.3c-3.5,0-7.1-0.2-10.6-0.6     l-43.2-5.1L147,350c24.1,15.5,52,23.6,80.6,23.6c42.2,0,79.3-15.4,107.2-44.6c27-28.3,42.6-67.7,42.3-106.5     c8.8-7,16.4-15.3,22.7-24.7l19.2-28.7l-26.4,11.7c0.7-1.6,1.3-3.3,1.8-5l8-25.1l-22.6,13.4C372.5,168.6,364.8,171.8,356.7,173.9      M256,43.2C138.5,43.2,43.2,138.5,43.2,256S138.5,468.8,256,468.8S468.8,373.5,468.8,256S373.5,43.2,256,43.2L256,43.2z      M270.1,229.5c-7.1-30.7,16.1-60.2,47.8-60.2c14.1,0,26.9,6,35.8,15.5c11.2-2.2,21.7-6.3,31.1-11.9     c-3.7,11.5-11.4,21.1-21.6,27.1c9.9-1.2,19.4-3.8,28.2-7.7c-6.6,9.8-14.9,18.5-24.5,25.4c3.1,69-48.4,145.9-139.4,145.9     c-27.7,0-53.5-8.1-75.2-22c3.9,0.5,7.8,0.7,11.7,0.7c22,0,43.4-7.3,60.9-21c-21.5-0.4-39.6-14.6-45.8-34.1     c3.1,0.6,6.2,0.9,9.3,0.9c4.4,0,8.8-0.6,12.8-1.7c-23.6-4.7-39.9-26-39.3-48.7c6.6,3.7,14.2,5.9,22.2,6.1     c-21.8-14.6-28-43.4-15.2-65.5C193.2,208,229.3,227.5,270.1,229.5L270.1,229.5z"/></g></g></g></svg>